#N canvas 350 124 570 497 10;
#X declare -path rjlib/rj;
#X obj 164 186 g_nbx delr;
#X obj 164 151 g_nbx dell;
#X obj 164 291 g_nbx bpitch;
#X obj 164 221 g_nhsl feedback 0 1;
#X obj 66 375 e_dubdel mydubdel;
#X obj 164 116 g_nbx basedur;
#X obj 164 256 g_nbx bq;
#X obj 164 331 g_hsl dry 0 1;
#X obj 164 46 loadbang;
#X text 312 222 feedback - delay feedback;
#X text 236 257 bq - bandpass Q: resonance (default 2);
#X text 254 116 basedur - base duration for delays;
#X text 306 323 dry - amount of dry signal;
#X text 305 341 dry=0 means fully wet (default);
#X text 255 145 dell - delay divisor left.;
#X text 255 159 Actual delay: basedur/dell;
#X text 257 179 delr - delay divisor right.;
#X text 257 193 Actual delay: basedur/delr;
#X text 240 293 bandpass pitch in midi units (0-127);
#X obj 71 410 dac~;
#X obj 170 414 declare -path rjlib/rj;
#X obj 76 345 adc~;
#X msg 164 73 dry 0 \, bq 0 \, basedur 500 \, bpitch 66 \, feedback
0.75 \, dell 4 \, delr 3 \,;
#X obj 91 72 r params;
#X connect 0 0 3 0;
#X connect 1 0 0 0;
#X connect 2 0 7 0;
#X connect 3 0 6 0;
#X connect 4 0 19 0;
#X connect 4 1 19 1;
#X connect 5 0 1 0;
#X connect 6 0 2 0;
#X connect 7 0 4 2;
#X connect 8 0 22 0;
#X connect 21 0 4 0;
#X connect 21 1 4 1;
#X connect 22 0 5 0;
#X connect 23 0 5 0;
